<?xml version="1.0" standalone="no"?>
<!DOCTYPE svg PUBLIC "-//W3C//DTD SVG 20010904//EN"
 "http://www.w3.org/TR/2001/REC-SVG-20010904/DTD/svg10.dtd">
<svg version="1.0" xmlns="http://www.w3.org/2000/svg"
 width="1024.000000pt" height="1024.000000pt" viewBox="0 0 1024.000000 1024.000000"
 preserveAspectRatio="xMidYMid meet">
<metadata>
Created by potrace 1.11, written by Peter Selinger 2001-2013
</metadata>
<g transform="translate(0.000000,1024.000000) scale(0.100000,-0.100000)"
fill="#000000" stroke="none">
<path d="M4848 10235 c-2 -1 -46 -6 -98 -9 -99 -7 -164 -13 -215 -21 -16 -3
-55 -7 -85 -11 -47 -5 -120 -16 -265 -40 -318 -53 -790 -200 -1129 -350 -174
-77 -464 -228 -590 -307 -278 -173 -471 -313 -697 -507 -148 -128 -386 -365
-509 -509 -30 -35 -60 -69 -65 -75 -28 -29 -236 -303 -288 -378 -185 -268
-383 -630 -507 -928 -28 -69 -55 -134 -60 -145 -5 -11 -16 -42 -25 -69 -8 -26
-20 -56 -25 -66 -5 -9 -11 -28 -14 -41 -3 -13 -16 -58 -30 -99 -58 -175 -132
-460 -152 -589 -3 -18 -8 -43 -10 -55 -9 -46 -33 -194 -39 -241 -6 -48 -7 -62
-19 -170 -28 -247 -28 -764 -1 -1010 8 -65 34 -268 39 -295 3 -14 7 -41 10
-60 6 -40 38 -204 60 -301 23 -106 85 -325 126 -449 380 -1135 1124 -2082
2145 -2730 39 -25 79 -49 90 -56 11 -6 58 -32 105 -59 429 -245 993 -459 1450
-551 14 -3 32 -7 40 -9 21 -6 295 -53 350 -60 25 -3 63 -7 85 -10 40 -5 68 -7
245 -21 183 -15 656 -9 835 10 17 2 62 7 100 10 73 7 122 14 165 21 14 3 41 7
60 10 19 3 58 10 85 15 28 5 64 11 80 14 127 20 396 90 605 158 984 321 1822
910 2466 1733 259 331 505 752 669 1145 26 63 54 129 61 145 33 78 154 452
169 520 1 6 7 29 14 52 17 62 62 272 76 358 3 17 12 66 20 110 7 44 17 107 20
139 3 33 8 74 10 93 3 18 7 48 9 66 27 196 27 808 1 1012 -2 17 -7 51 -10 78
-13 119 -17 148 -32 232 -8 50 -17 104 -20 120 -9 60 -74 342 -93 410 -195
669 -445 1183 -829 1705 -31 41 -58 77 -61 80 -3 3 -39 48 -81 100 -324 406
-777 810 -1217 1086 -35 21 -74 46 -87 54 -116 73 -417 233 -535 284 -36 16
-89 39 -118 52 -152 69 -418 161 -682 238 -157 46 -517 117 -665 131 -33 4
-71 8 -85 10 -14 3 -59 7 -100 11 -41 3 -86 8 -100 11 -27 5 -646 13 -652 8z"/>
</g>
</svg>
